<svg version="1.2" xmlns="http://www.w3.org/2000/svg" viewBox="0 0 512 512" width="512" height="512"><style>.a{fill:#f85b67}</style><path class="a" d="m475.6 270.9l-23.2 23.2-76.5-76.5c-6-5.8-13.1-10.3-20.8-13.4-7.8-3.1-16.1-4.7-24.4-4.7-8.4 0-16.6 1.6-24.4 4.7-7.7 3.1-14.8 7.6-20.9 13.4l-3.7 3.7c-2 1.9-4.3 3.4-6.9 4.5-2.6 1-5.3 1.5-8.1 1.5-2.8 0-5.6-0.5-8.2-1.5-2.5-1.1-4.9-2.6-6.9-4.5l-108.2-108.4c-4-4.1-9.5-6.4-15.2-6.5-5.7 0-11.2 2.2-15.3 6.3-4 4-6.3 9.5-6.2 15.2 0 5.8 2.4 11.2 6.5 15.2l108.2 108.2c6 5.8 13.1 10.3 20.9 13.5 7.7 3.1 16 4.7 24.3 4.7 8.4 0 16.7-1.6 24.4-4.7 7.8-3.2 14.9-7.7 20.9-13.5l3.7-3.7c2-1.9 4.4-3.4 6.9-4.4 2.6-1.1 5.4-1.6 8.2-1.6 2.8 0 5.5 0.5 8.1 1.6 2.6 1 4.9 2.5 6.9 4.4l76.6 76.7-23.2 23.1c-3 3-5 6.8-5.9 11-0.8 4.1-0.4 8.4 1.3 12.3 1.6 3.9 4.3 7.2 7.8 9.6 3.5 2.3 7.6 3.5 11.9 3.6h65.8c4.2 0 8.4-0.9 12.2-2.5 3.9-1.6 7.5-4 10.4-6.9 3-3 5.4-6.5 7-10.4 1.6-3.9 2.4-8 2.4-12.2v-66c0-4.2-1.3-8.3-3.7-11.8-2.3-3.5-5.6-6.2-9.5-7.8-3.9-1.6-8.2-2-12.3-1.2-4.2 0.8-7.9 2.9-10.9 5.8z"/><path class="a" d="m490.7 468.8h-384c-8.4 0-16.8-1.6-24.5-4.9-7.8-3.2-14.8-7.9-20.8-13.8-5.9-6-10.6-13-13.9-20.8-3.2-7.8-4.8-16.1-4.8-24.5v-383.5c0-5.6-2.3-11.1-6.3-15.1-4-4-9.4-6.2-15.1-6.2-5.6 0-11.1 2.2-15.1 6.2-4 4-6.2 9.5-6.2 15.1v383.5c0 14 2.8 27.9 8.2 40.8 5.3 13 13.2 24.7 23.1 34.6 9.9 9.9 21.6 17.8 34.6 23.1 12.9 5.4 26.8 8.2 40.8 8.2h384c5.6 0 11.1-2.3 15.1-6.3 4-4 6.2-9.4 6.2-15 0-5.7-2.2-11.1-6.2-15.1-4-4-9.5-6.3-15.1-6.3z"/></svg>