<svg version="1.2" xmlns="http://www.w3.org/2000/svg" viewBox="0 0 512 512" width="512" height="512"><style>.a{fill:#49a73c}</style><path class="a" d="m480 84.8h-65.8c-4.3 0-8.4 1.3-11.9 3.6-3.5 2.4-6.2 5.7-7.8 9.6-1.7 3.9-2.1 8.2-1.3 12.3 0.9 4.2 2.9 8 5.9 10.9l23.2 23.2-76.6 76.5c-2 1.9-4.3 3.4-6.9 4.5-2.6 1-5.4 1.5-8.1 1.5-2.8 0-5.6-0.5-8.2-1.5-2.6-1.1-4.9-2.6-6.9-4.5l-3.7-3.7c-6-5.7-13.1-10.3-20.8-13.4-7.8-3.1-16.1-4.7-24.4-4.7-8.4 0-16.7 1.6-24.4 4.7-7.8 3.1-14.8 7.7-20.9 13.4l-108.8 108.8c-3.9 4.1-6.2 9.5-6.2 15.2 0.1 5.6 2.3 11.1 6.3 15.1 4 4 9.4 6.2 15.1 6.2 5.7 0 11.1-2.3 15.1-6.3l108.8-108.7c2-2 4.4-3.5 7-4.5 2.6-1.1 5.3-1.6 8.1-1.6 2.8 0 5.6 0.5 8.2 1.6 2.5 1 4.9 2.5 6.9 4.5l3.6 3.6c6.1 5.8 13.2 10.3 20.9 13.4 7.8 3.1 16.1 4.7 24.4 4.7 8.4 0 16.6-1.6 24.4-4.7 7.7-3.1 14.8-7.6 20.9-13.4l76.5-76.5 23.1 23.2c3 2.9 6.8 4.9 10.9 5.7 4.2 0.8 8.4 0.3 12.3-1.3 3.8-1.6 7.2-4.3 9.5-7.8 2.3-3.5 3.6-7.6 3.6-11.7v-65.9c0-4.2-0.8-8.3-2.4-12.2-1.6-3.9-4-7.4-7-10.4-2.9-3-6.5-5.3-10.4-6.9-3.8-1.7-8-2.5-12.2-2.5z"/><path class="a" d="m490.7 468.8h-384c-8.4 0-16.8-1.6-24.5-4.9-7.8-3.2-14.8-7.9-20.8-13.8-5.9-6-10.6-13-13.9-20.8-3.2-7.8-4.8-16.1-4.8-24.5v-383.5c0-5.6-2.3-11.1-6.3-15.1-4-4-9.4-6.2-15.1-6.2-5.6 0-11.1 2.2-15.1 6.2-4 4-6.2 9.5-6.2 15.1v383.5c0 14 2.8 27.9 8.2 40.8 5.3 13 13.2 24.7 23.1 34.6 9.9 9.9 21.6 17.8 34.6 23.1 12.9 5.4 26.8 8.2 40.8 8.2h384c5.6 0 11.1-2.3 15.1-6.3 4-4 6.2-9.4 6.2-15 0-5.7-2.2-11.1-6.2-15.1-4-4-9.5-6.3-15.1-6.3z"/></svg>