<svg version="1.2" xmlns="http://www.w3.org/2000/svg" viewBox="0 0 24 24" width="24" height="24"><style>.a{fill:#fff}</style><path class="a" d="m18.9 10.5c-0.4 0-0.7 0.2-0.7 0.6v6.5c0 0.3-0.3 0.6-0.6 0.6h-10.4c-1 0-1.9-0.9-1.9-1.9v-6.5q0 0 0 0c0.5 0.4 1.2 0.7 1.9 0.7h5.2c0.4 0 0.6-0.3 0.6-0.7 0-0.3-0.2-0.6-0.6-0.6h-5.2c-0.5 0-1-0.3-1.4-0.7 0.4-0.4 0.9-0.6 1.4-0.6h4.6c0.3 0 0.6-0.3 0.6-0.7 0-0.3-0.3-0.6-0.6-0.6h-4.6c-1.8 0-3.2 1.5-3.2 3.2v6.5c0 1.8 1.4 3.2 3.2 3.2h10.4c1 0 1.9-0.9 1.9-1.9v-6.5c0-0.4-0.3-0.6-0.6-0.6zm-3 2.9c0.6 0 1 0.4 1 0.9 0 0.6-0.4 1-1 1-0.5 0-0.9-0.4-0.9-1 0-0.5 0.4-0.9 0.9-0.9zm-0.6-3.3c0.5 0.5 1.4 0.5 1.9 0l1.5-1.4c0.2-0.3 0.2-0.7 0-1-0.3-0.2-0.7-0.2-0.9 0l-0.9 0.9v-4c0-0.3-0.3-0.6-0.6-0.6-0.4 0-0.7 0.3-0.7 0.6v4l-0.8-0.9c-0.3-0.2-0.7-0.2-0.9 0-0.3 0.3-0.3 0.7 0 1z"/></svg>