<svg version="1.2" xmlns="http://www.w3.org/2000/svg" viewBox="0 0 24 24" width="24" height="24"><style>.a{fill:#fff}</style><path class="a" d="m19.5 3h-15c-2.5 0-4.5 2-4.5 4.5v9c0 2.5 2 4.5 4.5 4.5h15c2.5 0 4.5-2 4.5-4.5v-9c0-2.5-2-4.5-4.5-4.5zm3.5 13.5c0 1.9-1.6 3.5-3.5 3.5h-15c-1.9 0-3.5-1.6-3.5-3.5v-9c0-1.9 1.6-3.5 3.5-3.5h15c1.9 0 3.5 1.6 3.5 3.5zm-2-9c0 0.3-0.2 0.5-0.5 0.5h-5c-0.3 0-0.5-0.2-0.5-0.5 0-0.3 0.2-0.5 0.5-0.5h5c0.3 0 0.5 0.2 0.5 0.5zm0 3c0 0.3-0.2 0.5-0.5 0.5h-5c-0.3 0-0.5-0.2-0.5-0.5 0-0.3 0.2-0.5 0.5-0.5h5c0.3 0 0.5 0.2 0.5 0.5zm0 3c0 0.3-0.2 0.5-0.5 0.5h-5c-0.3 0-0.5-0.2-0.5-0.5 0-0.3 0.2-0.5 0.5-0.5h5c0.3 0 0.5 0.2 0.5 0.5zm-2 3c0 0.3-0.2 0.5-0.5 0.5h-3c-0.3 0-0.5-0.2-0.5-0.5 0-0.3 0.2-0.5 0.5-0.5h3c0.3 0 0.5 0.2 0.5 0.5zm-7.3-6.5h-1.8l-0.7-1.9c-0.2-0.5-0.7-0.8-1.2-0.8-0.5 0-1 0.3-1.2 0.8l-0.7 1.9h-1.9c-0.5 0-0.9 0.3-1.1 0.8-0.2 0.5-0.1 1.1 0.3 1.4l1.6 1.2-0.6 2c-0.2 0.5 0 1 0.4 1.4q0.3 0.2 0.8 0.2 0.3 0 0.7-0.2l1.7-1.2 1.8 1.2c0.4 0.3 1 0.3 1.4-0.1 0.5-0.3 0.6-0.8 0.5-1.4l-0.7-1.9 1.6-1.2c0.4-0.3 0.5-0.9 0.3-1.4-0.2-0.5-0.6-0.8-1.2-0.8zm0.2 1.4l-1.8 1.5c-0.1 0.1-0.2 0.3-0.1 0.5l0.7 2.3q0.1 0.1-0.1 0.2-0.1 0.1-0.3 0.1l-2-1.4c-0.2-0.1-0.4-0.1-0.6 0l-2 1.4c-0.1 0-0.2 0.1-0.3 0q-0.1-0.2-0.1-0.3l0.7-2.3c0.1-0.2 0-0.4-0.1-0.5l-1.8-1.5q-0.1-0.1-0.1-0.2 0.1-0.2 0.2-0.2h2.3c0.2 0 0.4-0.1 0.5-0.3l0.8-2.3c0-0.2 0.4-0.1 0.4 0l0.8 2.3c0.1 0.2 0.3 0.3 0.5 0.3h2.2q0.2 0 0.3 0.2c0 0.1 0 0.2-0.1 0.2z"/></svg>