<svg version="1.2" xmlns="http://www.w3.org/2000/svg" viewBox="0 0 512 512" width="512" height="512"><style>.a{fill:#fff}</style><path class="a" d="m485.7 93.4c-3.9-1.6-8-2.6-12.2-3.1-4.2-0.4-8.4-0.2-12.5 0.7-4.1 0.8-8.1 2.2-11.8 4.2-3.7 2-7.1 4.5-10 7.5l-55.2 55.1-97.8-97.8c-4-4-8.7-7.1-13.9-9.2-5.2-2.2-10.7-3.3-16.3-3.3-5.6 0-11.1 1.1-16.3 3.3-5.2 2.1-9.9 5.2-13.9 9.2l-97.8 97.8-55.2-55.1c-5.9-6-13.5-10.1-21.8-11.7-8.3-1.7-16.9-0.8-24.7 2.4-7.8 3.3-14.4 8.7-19.1 15.7-4.7 7-7.2 15.3-7.2 23.7v225.9c0 14 2.8 27.8 8.2 40.8 5.3 12.9 13.2 24.7 23.1 34.6 9.9 9.9 21.6 17.7 34.6 23.1 12.9 5.3 26.8 8.1 40.8 8.1h298.6c14 0 27.9-2.8 40.8-8.1 13-5.4 24.7-13.2 34.6-23.1 9.9-9.9 17.8-21.7 23.1-34.6 5.4-13 8.2-26.8 8.2-40.8v-225.9c0-4.2-0.6-8.3-1.8-12.4-1.3-4-3.1-7.8-5.4-11.3q-3.4-5.2-8.4-9.3c-3.2-2.6-6.8-4.8-10.7-6.4zm-16.4 265.3c0 8.4-1.6 16.7-4.8 24.5-3.3 7.7-8 14.8-13.9 20.7-6 6-13 10.7-20.8 13.9-7.7 3.2-16.1 4.9-24.5 4.9h-298.6c-8.4 0-16.8-1.7-24.5-4.9-7.8-3.2-14.8-7.9-20.8-13.9-5.9-5.9-10.6-13-13.9-20.7-3.2-7.8-4.8-16.1-4.8-24.5v-225.9l70.2 70.3c2 2 4.3 3.5 6.9 4.6 2.6 1.1 5.4 1.6 8.2 1.6 2.8 0 5.6-0.5 8.2-1.6 2.6-1.1 4.9-2.6 6.9-4.6l112.9-112.9 112.9 112.9c2 2 4.3 3.5 6.9 4.6 2.6 1.1 5.4 1.6 8.2 1.6 2.8 0 5.6-0.5 8.2-1.6 2.6-1.1 4.9-2.6 6.9-4.6l70.2-70.3z"/></svg>