<svg version="1.2" xmlns="http://www.w3.org/2000/svg" viewBox="0 0 512 512" width="512" height="512"><style>.a{fill:#fff}</style><path class="a" d="m160 277.3c-38.8 0-73.8-23.4-88.7-59.2-14.9-35.9-6.6-77.2 20.8-104.6 27.5-27.5 68.8-35.7 104.6-20.9 35.9 14.9 59.3 49.9 59.3 88.7 0 12.6-2.5 25.1-7.3 36.8-4.9 11.6-11.9 22.2-20.8 31.1-9 8.9-19.5 16-31.2 20.8-11.6 4.8-24.1 7.3-36.7 7.3zm0-149.3c-21.6 0-41 13-49.3 32.9-8.2 20-3.7 42.9 11.6 58.1 15.2 15.3 38.2 19.9 58.1 11.6 19.9-8.2 32.9-27.7 32.9-49.3 0-7-1.3-13.9-4-20.4-2.7-6.4-6.6-12.3-11.6-17.3-4.9-4.9-10.8-8.9-17.3-11.5-6.5-2.7-13.4-4.1-20.4-4.1zm160 362.7v-10.7c0-42.4-16.9-83.1-46.9-113.1-30-30-70.7-46.9-113.1-46.9-42.4 0-83.1 16.9-113.1 46.9-30 30-46.9 70.7-46.9 113.1v10.7c0 5.6 2.2 11.1 6.2 15.1 4 4 9.5 6.2 15.1 6.2 5.7 0 11.1-2.2 15.1-6.2 4-4 6.3-9.5 6.3-15.1v-10.7c0-31.1 12.3-61 34.3-83 22-22 51.9-34.3 83-34.3 31.1 0 61 12.3 83 34.3 22 22 34.3 51.9 34.3 83v10.7c0 5.6 2.3 11.1 6.3 15.1 4 4 9.4 6.2 15.1 6.2 5.6 0 11.1-2.2 15.1-6.2 4-4 6.2-9.5 6.2-15.1zm192-106.7c0-28.8-8.3-57-24-81.2-15.7-24.2-38.1-43.4-64.4-55.1-26.3-11.8-55.5-15.7-83.9-11.2-28.5 4.4-55.1 17-76.6 36.2-4.3 3.8-6.9 9.1-7.2 14.8-0.3 5.6 1.6 11.2 5.4 15.5 3.8 4.2 9.1 6.7 14.8 7 5.7 0.3 11.3-1.7 15.5-5.5 15.3-13.7 34.3-22.7 54.6-25.9 20.4-3.2 41.2-0.4 60 8 18.8 8.4 34.8 22.1 46 39.4 11.2 17.3 17.1 37.4 17.1 58 0 5.7 2.3 11.1 6.3 15.1 4 4 9.4 6.2 15.1 6.2 5.6 0 11.1-2.2 15.1-6.2 4-4 6.2-9.4 6.2-15.1zm-138.7-192c-38.8 0-73.8-23.4-88.7-59.3-14.8-35.8-6.6-77.1 20.9-104.6 27.4-27.4 68.7-35.7 104.6-20.8 35.8 14.9 59.2 49.9 59.2 88.7 0 12.6-2.5 25.1-7.3 36.7-4.8 11.7-11.9 22.2-20.8 31.2-8.9 8.9-19.5 15.9-31.1 20.8-11.7 4.8-24.2 7.3-36.8 7.3zm0-149.3c-21.5 0-41 13-49.2 32.9-8.3 19.9-3.7 42.9 11.5 58.1 15.3 15.3 38.2 19.8 58.1 11.6 20-8.3 33-27.7 33-49.3 0-7-1.4-13.9-4.1-20.4-2.7-6.5-6.6-12.4-11.6-17.3-4.9-5-10.8-8.9-17.3-11.6-6.4-2.7-13.4-4-20.4-4z"/></svg>